<?xml version="1.0" standalone="no"?><!DOCTYPE svg PUBLIC "-//W3C//DTD SVG 1.1//EN" "http://www.w3.org/Graphics/SVG/1.1/DTD/svg11.dtd"><svg t="1489055966519" class="icon" style="" viewBox="0 0 1024 1024" version="1.1" xmlns="http://www.w3.org/2000/svg" p-id="4068" xmlns:xlink="http://www.w3.org/1999/xlink" width="16" height="16"><defs><style type="text/css"></style></defs><path d="M512.141086 0.282171C229.405346 0.282171 0.282171 229.405346 0.282171 512.141086s229.123174 511.858914 511.858915 511.858914 511.858914-229.123174 511.858914-511.858914S794.876826 0.282171 512.141086 0.282171z m0 950.635437C269.755856 950.917608 73.364563 754.526316 73.364563 512.141086S269.755856 73.364563 512.141086 73.364563 950.917608 269.755856 950.917608 512.141086 754.526316 950.917608 512.141086 950.917608z" p-id="4069" fill="#FF23AF"></path><path d="M512.141086 512.141086m-292.611739 0a292.611739 292.611739 0 1 0 585.223477 0 292.611739 292.611739 0 1 0-585.223477 0Z" p-id="4070" fill="#FF23AF"></path></svg>